<?xml version="1.0" encoding="utf-8"?>
<!-- Generator: Adobe Illustrator 17.0.2, SVG Export Plug-In . SVG Version: 6.00 Build 0)  -->
<!DOCTYPE svg PUBLIC "-//W3C//DTD SVG 1.1//EN" "http://www.w3.org/Graphics/SVG/1.1/DTD/svg11.dtd">
<svg version="1.1" id="Layer_1" xmlns="http://www.w3.org/2000/svg" xmlns:xlink="http://www.w3.org/1999/xlink" x="0px" y="0px"
	 width="139.773px" height="139.575px" viewBox="0 0 139.773 139.575" enable-background="new 0 0 139.773 139.575"
	 xml:space="preserve">
<g>
	<path opacity="0.9" enable-background="new    " d="M117.577,60.62l-11.733-11.733V32.822c-0.003-1.028-0.837-1.861-1.865-1.865
		h-7.942c-1.028,0.004-1.861,0.837-1.865,1.865v4.392l-24.73-24.729c-0.402-0.405-0.968-0.604-1.535-0.542
		c-0.422,0.049-0.814,0.24-1.113,0.542L18.66,60.62c-0.728,0.734-0.721,1.92,0.014,2.647c0.349,0.345,0.819,0.539,1.31,0.541h10.168
		v34.236c0.003,1.028,0.836,1.861,1.865,1.865h12.666h17.418h12.035h17.869h12.215c1.028-0.004,1.861-0.837,1.865-1.865V63.808
		h10.168c1.034-0.004,1.869-0.845,1.865-1.879C118.116,61.438,117.922,60.969,117.577,60.62z"/>
	<g id="Your_Icon" opacity="0.5">
		<path fill="#FFFFFF" d="M68.119,92.962c-15.207,0-27.58-12.371-27.58-27.578s12.372-27.58,27.58-27.58
			c15.205,0,27.578,12.373,27.578,27.58C95.698,80.591,83.325,92.962,68.119,92.962z M68.119,44.331
			c-11.609,0-21.053,9.443-21.053,21.053c0,11.608,9.444,21.052,21.053,21.052c11.608,0,21.052-9.444,21.052-21.052
			C89.172,53.774,79.728,44.331,68.119,44.331z"/>
		<g>
			<ellipse fill="#FFFFFF" cx="61.44" cy="57.743" rx="3.88" ry="5.24"/>
			<path fill="#FFFFFF" d="M78.677,57.743c0,2.893-1.737,5.24-3.881,5.24c-2.141,0-3.877-2.347-3.877-5.24s1.736-5.239,3.877-5.239
				C76.94,52.504,78.677,54.849,78.677,57.743z"/>
		</g>
		<path fill="#FFFFFF" d="M68.099,80.548c-8.959,0-12.836-6.238-12.997-6.504c-0.912-1.508-0.43-3.47,1.079-4.383
			c1.494-0.903,3.44-0.438,4.361,1.046c0.134,0.205,2.355,3.46,7.557,3.46c5.287,0,7.578-3.43,7.6-3.466
			c0.934-1.494,2.905-1.948,4.397-1.016c1.496,0.935,1.949,2.905,1.016,4.398C80.946,74.346,76.97,80.548,68.099,80.548z"/>
	</g>
</g>
</svg>
